<svg xmlns="http://www.w3.org/2000/svg" width="32.006" height="22.415" viewBox="0 0 32.006 22.415">
  <path id="done_FILL0_wght300_GRAD0_opsz48" d="M19.551,35.765a1.36,1.36,0,0,1-.556-.106,1.741,1.741,0,0,1-.5-.371l-9.22-9.167a1.216,1.216,0,0,1,0-1.749,1.154,1.154,0,0,1,1.7,0l8.584,8.584L38.786,13.668a1.361,1.361,0,0,1,1.749,0,1.349,1.349,0,0,1,.371.9,1.167,1.167,0,0,1-.371.848L20.611,35.288a1.173,1.173,0,0,1-.477.371A1.556,1.556,0,0,1,19.551,35.765Z" transform="translate(-8.9 -13.35)" fill="#fafafa"/>
</svg>
