<svg xmlns="http://www.w3.org/2000/svg" xmlns:xlink="http://www.w3.org/1999/xlink" width="113.742" height="22.223" viewBox="0 0 113.742 22.223">
  <defs>
    <linearGradient id="linear-gradient" y1="0.5" x2="1" y2="0.5" gradientUnits="objectBoundingBox">
      <stop offset="0" stop-color="#1ab578"/>
      <stop offset="1" stop-color="#06b479"/>
    </linearGradient>
    <linearGradient id="linear-gradient-2" x1="0" y1="0.5" x2="1.001" y2="0.5" xlink:href="#linear-gradient"/>
    <linearGradient id="linear-gradient-3" x1="0" y1="0.5" x2="1" y2="0.5" xlink:href="#linear-gradient"/>
    <linearGradient id="linear-gradient-4" x1="0" y1="0.5" x2="1" y2="0.5" xlink:href="#linear-gradient"/>
    <linearGradient id="linear-gradient-5" x1="0" y1="0.5" x2="1" y2="0.5" xlink:href="#linear-gradient"/>
    <linearGradient id="linear-gradient-6" x1="0" y1="0.5" x2="1" y2="0.5" xlink:href="#linear-gradient"/>
    <linearGradient id="linear-gradient-7" x1="0" y1="0.5" x2="1" y2="0.5" xlink:href="#linear-gradient"/>
  </defs>
  <g id="Artboard_10" data-name="Artboard 10" transform="translate(-5.32 -4.31)">
    <path id="Path_42736" data-name="Path 42736" d="M329.331,45.6c.2.049.4.1.6.141,2.453.525,3.333.588,3.333,1.447,0,.776-.649,1.237-2.1,1.237s-2.186-.361-2.588-1.11l-1.48,3.374a7.255,7.255,0,0,0,4.088,1.072c2.347,0,5.662-1.135,5.662-4.719,0-2.994-1.945-3.917-6.046-4.8L329.331,45.6Z" transform="translate(-256.102 -30.188)" fill="#7bc9ab"/>
    <path id="Path_42737" data-name="Path 42737" d="M134.679,31.02v6.121c0,1.592-.712,2.284-2.074,2.284s-1.782-.735-1.782-1.99V31.02H127.26v7.211c0,2.811,1.572,4.592,4.109,4.592a4.012,4.012,0,0,0,3.313-1.594V42.55h3.566V31.02h-3.566Z" transform="translate(-97.051 -21.258)" fill="url(#linear-gradient)"/>
    <rect id="Rectangle_8033" data-name="Rectangle 8033" width="3.564" height="11.53" transform="translate(43.294 9.762)" fill="url(#linear-gradient-2)"/>
    <path id="Path_42738" data-name="Path 42738" d="M277.263,31.02l-2.476,6.017-2.431-6.017h-3.8l4.341,9.936-3,6.836H273.7l7.358-16.771Z" transform="translate(-209.511 -21.258)" fill="url(#linear-gradient-3)"/>
    <rect id="Rectangle_8034" data-name="Rectangle 8034" width="3.564" height="11.53" transform="translate(88.2 9.762)" fill="#7bc9ab"/>
    <path id="Path_42739" data-name="Path 42739" d="M66.952,29.961v1.3a4.008,4.008,0,0,0-3.292-1.57c-2.874,0-5.18,2.451-5.18,6.035s2.266,6.04,5.2,6.04a4.072,4.072,0,0,0,3.272-1.51v6.476h3.564V29.961ZM64.52,38.367a2.439,2.439,0,0,1-2.431-2.643,2.44,2.44,0,1,1,4.864,0A2.441,2.441,0,0,1,64.52,38.367Z" transform="translate(-42.31 -20.2)" fill="url(#linear-gradient-4)"/>
    <path id="Path_42740" data-name="Path 42740" d="M438.09,35.717a5.874,5.874,0,0,0,6.038,6.04,5.529,5.529,0,0,0,5.829-4.846h-3.67a2.068,2.068,0,0,1-2.159,1.553,2.44,2.44,0,0,1-2.431-2.749c0-1.657.882-2.745,2.453-2.745a2.022,2.022,0,0,1,2.137,1.531h3.67a5.521,5.521,0,0,0-5.807-4.821,5.878,5.878,0,0,0-6.06,6.035" transform="translate(-344.438 -20.192)" fill="#7bc9ab"/>
    <path id="Path_42741" data-name="Path 42741" d="M509.54,29.69a6.038,6.038,0,1,0,.084,12.075,5.544,5.544,0,0,0,5.7-4.045h-3.67a2,2,0,0,1-2.033,1.3,2.491,2.491,0,0,1-2.537-2.537h8.407C515.851,32.688,513.355,29.69,509.54,29.69Zm-2.347,4.633a2.294,2.294,0,0,1,2.327-1.888,2.184,2.184,0,0,1,2.264,1.888h-4.59Z" transform="translate(-396.466 -20.2)" fill="#7bc9ab"/>
    <path id="Path_42742" data-name="Path 42742" d="M350.09,19.059a1.65,1.65,0,0,1,1.231,1.1.508.508,0,0,0,.484.312h2.641a.494.494,0,0,0,.494-.569,4.83,4.83,0,0,0-3.488-3.949l-1.361,3.107Z" transform="translate(-274.4 -9.264)" fill="#7bc9ab"/>
    <path id="Path_42743" data-name="Path 42743" d="M218.02,16.386v2.37h-1.97v3.353h1.97v3.711c0,3.439,2.182,4.739,4.4,4.739a7.1,7.1,0,0,0,3.607-1.008l-.608-2.872a8.772,8.772,0,0,1-2.37.565c-.9,0-1.47-.525-1.47-1.633v-3.5h3.878V18.755h-3.878V15.61l-3.564.778Z" transform="translate(-167.718 -8.994)" fill="url(#linear-gradient-5)"/>
    <path id="Path_42744" data-name="Path 42744" d="M5.816,15.5a.5.5,0,0,0-.5.5V29.683a.5.5,0,0,0,.5.5h5.025l1.49-3.4H8.884v-2.3h4.46l1.5-3.4H8.884V18.9h6.907l1.49-3.4H5.816Z" transform="translate(0 -8.906)" fill="url(#linear-gradient-6)"/>
    <rect id="Rectangle_8035" data-name="Rectangle 8035" width="3.564" height="16.143" transform="translate(82.534 5.149)" fill="#7bc9ab"/>
    <path id="Path_42745" data-name="Path 42745" d="M189.53,6.345a2.162,2.162,0,0,0,4.319,0,2.163,2.163,0,0,0-4.319,0" transform="translate(-146.611)" fill="url(#linear-gradient-7)"/>
    <path id="Path_42746" data-name="Path 42746" d="M409.53,6.345a2.162,2.162,0,0,0,4.319,0,2.163,2.163,0,0,0-4.319,0" transform="translate(-321.708)" fill="#7bc9ab"/>
  </g>
</svg>
