<svg xmlns="http://www.w3.org/2000/svg" width="207.938" height="40.627" viewBox="0 0 207.938 40.627">
  <g id="Logo" transform="translate(-5.32 -4.31)">
    <path id="Path_42736" data-name="Path 42736" d="M331.178,48.374c.366.09.728.179,1.1.257,4.485.959,6.093,1.075,6.093,2.646,0,1.418-1.187,2.261-3.832,2.261s-4-.66-4.731-2.03L327.1,57.677a13.264,13.264,0,0,0,7.474,1.959c4.291,0,10.351-2.075,10.351-8.627,0-5.474-3.556-7.161-11.052-8.769l-2.694,6.138Z" transform="translate(-201.711 -23.777)" fill="#97f4d0"/>
    <path id="Path_42737" data-name="Path 42737" d="M140.824,31.02V42.21c0,2.91-1.3,4.175-3.791,4.175s-3.258-1.343-3.258-3.638V31.02H127.26V44.2c0,5.138,2.873,8.4,7.511,8.4a7.335,7.335,0,0,0,6.056-2.914V52.1h6.519V31.02h-6.519Z" transform="translate(-76.439 -16.743)" fill="#fff"/>
    <rect id="Rectangle_8033" data-name="Rectangle 8033" width="6.515" height="21.079" transform="translate(74.743 14.277)" fill="#fff"/>
    <path id="Path_42738" data-name="Path 42738" d="M284.471,31.02l-4.526,11-4.444-11h-6.94L276.5,49.184l-5.481,12.5h6.937L291.4,31.02Z" transform="translate(-165.015 -16.743)" fill="#fff"/>
    <rect id="Rectangle_8034" data-name="Rectangle 8034" width="6.515" height="21.079" transform="translate(156.837 14.277)" fill="#97f4d0"/>
    <path id="Path_42739" data-name="Path 42739" d="M73.969,30.186v2.373A7.327,7.327,0,0,0,67.95,29.69c-5.254,0-9.47,4.481-9.47,11.034s4.142,11.041,9.508,11.041A7.444,7.444,0,0,0,73.969,49v11.84h6.515V30.186ZM69.521,45.552c-2.489,0-4.444-1.877-4.444-4.832S67,35.892,69.521,35.892s4.448,1.918,4.448,4.828-1.914,4.832-4.448,4.832Z" transform="translate(-33.324 -15.91)" fill="#fff"/>
    <path id="Path_42740" data-name="Path 42740" d="M438.09,40.717a10.738,10.738,0,0,0,11.037,11.041c5.138,0,9.967-3.026,10.657-8.858h-6.709a3.78,3.78,0,0,1-3.948,2.84c-2.72,0-4.444-2-4.444-5.026s1.612-5.019,4.485-5.019a3.7,3.7,0,0,1,3.907,2.8h6.709c-.653-5.634-5.37-8.814-10.616-8.814A10.746,10.746,0,0,0,438.09,40.714" transform="translate(-271.286 -15.903)" fill="#97f4d0"/>
    <path id="Path_42741" data-name="Path 42741" d="M514.576,29.69A10.732,10.732,0,0,0,503.46,40.724c0,6.243,4.526,11.041,11.269,11.041,4.563,0,8.97-2.187,10.426-7.4h-6.709a3.657,3.657,0,0,1-3.716,2.377c-2.257,0-4.332-1.381-4.638-4.638h15.37c.653-6.937-3.911-12.418-10.884-12.418Zm-4.291,8.47a4.193,4.193,0,0,1,4.254-3.452,3.993,3.993,0,0,1,4.138,3.452h-8.392Z" transform="translate(-312.264 -15.91)" fill="#97f4d0"/>
    <path id="Path_42742" data-name="Path 42742" d="M350.09,21.633a3.017,3.017,0,0,1,2.25,2.007.928.928,0,0,0,.884.571h4.828a.9.9,0,0,0,.9-1.041,8.83,8.83,0,0,0-6.377-7.22l-2.489,5.679Z" transform="translate(-216.123 -7.297)" fill="#97f4d0"/>
    <path id="Path_42743" data-name="Path 42743" d="M219.651,17.028V21.36h-3.6v6.131h3.6v6.784c0,6.287,3.989,8.664,8.049,8.664a12.983,12.983,0,0,0,6.593-1.843l-1.112-5.25a16.037,16.037,0,0,1-4.332,1.034c-1.649,0-2.687-.959-2.687-2.985v-6.4h7.09V21.36h-7.09V15.61l-6.515,1.422Z" transform="translate(-132.098 -7.084)" fill="#fff"/>
    <path id="Path_42744" data-name="Path 42744" d="M6.227,15.5a.908.908,0,0,0-.907.907V41.429a.908.908,0,0,0,.907.907h9.187l2.724-6.213h-6.3V31.911h8.153L22.723,25.7H11.835V21.713H24.462L27.186,15.5H6.227Z" transform="translate(0 -7.015)" fill="#fff"/>
    <rect id="Rectangle_8035" data-name="Rectangle 8035" width="6.515" height="29.512" transform="translate(146.479 5.844)" fill="#97f4d0"/>
    <path id="Path_42745" data-name="Path 42745" d="M189.53,8.03a3.953,3.953,0,0,0,7.9,0,3.955,3.955,0,0,0-7.9,0" transform="translate(-115.474)" fill="#fff"/>
    <path id="Path_42746" data-name="Path 42746" d="M409.53,8.03a3.953,3.953,0,0,0,7.9,0,3.955,3.955,0,0,0-7.9,0" transform="translate(-253.383)" fill="#97f4d0"/>
  </g>
</svg>
